<svg 
 xmlns="http://www.w3.org/2000/svg"
 xmlns:xlink="http://www.w3.org/1999/xlink"
 width="5px" height="20px">
<path fill-rule="evenodd"  fill="rgb(163, 177, 196)"
 d="M2.704,4.003 C1.481,3.969 0.519,3.047 0.557,1.944 C0.594,0.840 1.617,-0.028 2.840,0.006 C4.064,0.039 5.026,0.962 4.988,2.066 C4.950,3.169 3.928,4.037 2.704,4.003 ZM4.716,10.060 C4.678,11.164 3.656,12.031 2.432,11.998 C1.208,11.963 0.247,11.041 0.284,9.938 C0.322,8.833 1.344,7.967 2.568,8.000 C3.792,8.034 4.753,8.956 4.716,10.060 ZM4.443,18.054 C4.406,19.158 3.383,20.025 2.160,19.992 C0.936,19.957 -0.026,19.035 0.012,17.932 C0.050,16.828 1.072,15.961 2.296,15.994 C3.519,16.028 4.481,16.950 4.443,18.054 Z"/>
</svg>